<?xml version="1.0" standalone="no"?><!DOCTYPE svg PUBLIC "-//W3C//DTD SVG 1.1//EN" "http://www.w3.org/Graphics/SVG/1.1/DTD/svg11.dtd"><svg t="1657267676935" class="icon" viewBox="0 0 1024 1024" version="1.1" xmlns="http://www.w3.org/2000/svg" p-id="5069" xmlns:xlink="http://www.w3.org/1999/xlink" width="64" height="64"><defs><style type="text/css">@font-face { font-family: feedback-iconfont; src: url("//at.alicdn.com/t/font_1031158_u69w8yhxdu.woff2?t=1630033759944") format("woff2"), url("//at.alicdn.com/t/font_1031158_u69w8yhxdu.woff?t=1630033759944") format("woff"), url("//at.alicdn.com/t/font_1031158_u69w8yhxdu.ttf?t=1630033759944") format("truetype"); }
</style></defs><path d="M234.666667 298.666667A64 64 0 0 1 170.666667 234.666667 64 64 0 0 1 234.666667 170.666667 64 64 0 0 1 298.666667 234.666667 64 64 0 0 1 234.666667 298.666667m678.826666 195.413333l-384-384C514.133333 94.72 492.8 85.333333 469.333333 85.333333H170.666667c-47.36 0-85.333333 37.973333-85.333334 85.333334v298.666666c0 23.466667 9.386667 44.8 25.173334 60.16l383.573333 384c15.786667 15.36 37.12 25.173333 60.586667 25.173334 23.466667 0 44.8-9.813333 60.16-25.173334l298.666666-298.666666c15.786667-15.36 25.173333-36.693333 25.173334-60.16 0-23.893333-9.813333-45.226667-25.173334-60.586667z" fill="" p-id="5070"></path></svg>